<svg xmlns="http://www.w3.org/2000/svg" width="900" height="260" viewBox="0 0 900 260">
  <defs>
    <linearGradient id="g5" x1="0" x2="1" y1="0" y2="1">
      <stop offset="0" stop-color="#6366F1"/>
      <stop offset="1" stop-color="#A855F7"/>
    </linearGradient>
  </defs>

  <rect width="900" height="260" fill="#ffffff"/>
  <g transform="translate(70,40)">
    <rect x="0" y="10" width="180" height="170" rx="36" fill="url(#g5)"/>
    <rect x="28" y="62" width="124" height="98" rx="18" fill="#0F172A" opacity="0.18"/>
    <rect x="28" y="66" width="124" height="100" rx="18" fill="#ffffff" opacity="0.95"/>
    <g fill="#CBD5E1">
      <rect x="42" y="82" width="20" height="20" rx="6"/>
      <rect x="70" y="82" width="20" height="20" rx="6"/>
      <rect x="98" y="82" width="20" height="20" rx="6"/>
      <rect x="42" y="110" width="20" height="20" rx="6"/>
      <rect x="70" y="110" width="20" height="20" rx="6"/>
      <rect x="98" y="110" width="20" height="20" rx="6"/>
    </g>
    <rect x="76" y="136" width="28" height="30" rx="10" fill="#94A3B8"/>
    <g transform="translate(90,36)">
      <rect x="-10" y="-18" width="20" height="36" rx="10" fill="#ffffff"/>
      <rect x="-18" y="-10" width="36" height="20" rx="10" fill="#ffffff"/>
    </g>
  </g>

  <g transform="translate(260,72)">
    <text x="0" y="78" font-family="Inter,Segoe UI,Arial,sans-serif" font-size="78" font-weight="800" fill="#0F172A">iClinic</text>
    <text x="4" y="128" font-family="Inter,Segoe UI,Arial,sans-serif" font-size="22" font-weight="600" fill="#64748B">Campus Clinic  Patient Records</text>
  </g>
</svg>
