<svg xmlns="http://www.w3.org/2000/svg" width="960" height="320" viewBox="0 0 960 320" role="img" aria-label="iClinic logo">
  <defs>
    <linearGradient id="p2" x1="0" x2="1" y1="0" y2="1">
      <stop offset="0" stop-color="#2563EB"/>
      <stop offset="1" stop-color="#22C55E"/>
    </linearGradient>
  </defs>
  <rect width="960" height="320" fill="#ffffff"/>
  <g transform="translate(72,64)">
    <circle cx="96" cy="96" r="96" fill="url(#p2)"/>
    <g transform="translate(96,96)">
      <path d="M0 -62c-10 0-18 8-18 18v20h-20c-10 0-18 8-18 18s8 18 18 18h20v20c0 10 8 18 18 18s18-8 18-18v-20h20c10 0 18-8 18-18s-8-18-18-18H18v-20c0-10-8-18-18-18z" fill="#ffffff"/>
      <path d="M-54 26c10 24 33 40 60 40 27 0 50-16 60-40" fill="none" stroke="#0F172A" stroke-opacity="0.18" stroke-width="14" stroke-linecap="round"/>
    </g>
  </g>
  <g transform="translate(304,120)">
    <text x="0" y="74" font-family="Inter, ui-sans-serif, system-ui, -apple-system, Segoe UI, Roboto, Arial, sans-serif" font-size="86" font-weight="800" fill="#0F172A" letter-spacing="-1">iClinic</text>
    <text x="2" y="116" font-family="Inter, ui-sans-serif, system-ui, -apple-system, Segoe UI, Roboto, Arial, sans-serif" font-size="22" font-weight="600" fill="#64748B">Patient Records &amp; Services</text>
  </g>
</svg>
