<svg xmlns="http://www.w3.org/2000/svg" width="900" height="260" viewBox="0 0 900 260">
  <defs>
    <linearGradient id="g3" x1="0" x2="1" y1="0" y2="1">
      <stop offset="0" stop-color="#EF4444"/>
      <stop offset="1" stop-color="#F97316"/>
    </linearGradient>
  </defs>

  <rect width="900" height="260" fill="#ffffff"/>
  <g transform="translate(70,40)">
    <rect x="0" y="0" width="180" height="180" rx="44" fill="#0F172A"/>
    <path d="M90 146s-46-26-62-54c-16-28-2-58 26-64 18-4 30 4 36 14 6-10 18-18 36-14 28 6 42 36 26 64-16 28-62 54-62 54z" fill="url(#g3)"/>
    <path d="M24 98h36l10-22 16 44 14-22h56" fill="none" stroke="#ffffff" stroke-width="10" stroke-linecap="round" stroke-linejoin="round"/>
    <path d="M132 46a44 44 0 1 0 0 60" fill="none" stroke="#ffffff" stroke-width="14" stroke-linecap="round" opacity="0.9"/>
  </g>

  <g transform="translate(260,72)">
    <text x="0" y="78" font-family="Inter,Segoe UI,Arial,sans-serif" font-size="78" font-weight="800" fill="#0F172A">iClinic</text>
    <text x="4" y="128" font-family="Inter,Segoe UI,Arial,sans-serif" font-size="22" font-weight="600" fill="#64748B">Care  Monitoring  Records</text>
  </g>
</svg>
