<svg xmlns="http://www.w3.org/2000/svg" width="960" height="320" viewBox="0 0 960 320" role="img" aria-label="iClinic logo">
  <rect width="960" height="320" fill="#ffffff"/>
  <g transform="translate(72,64)">
    <rect x="0" y="0" width="192" height="192" rx="52" fill="#0B1220"/>
    <g transform="translate(96,96)" fill="none" stroke-linecap="round" stroke-width="16">
      <path d="M-40-6c0-34 24-58 56-58 18 0 32 6 42 16" stroke="#22C55E"/>
      <path d="M-40 6c0 34 24 58 56 58 18 0 32-6 42-16" stroke="#38BDF8"/>
      <path d="M-6-52v104" stroke="#ffffff"/>
      <path d="M-18-64a12 12 0 1 0 24 0a12 12 0 1 0 -24 0" fill="#38BDF8" stroke="none"/>
    </g>
  </g>
  <g transform="translate(304,118)">
    <text x="0" y="74" font-family="Inter, ui-sans-serif, system-ui, -apple-system, Segoe UI, Roboto, Arial, sans-serif" font-size="86" font-weight="800" fill="#0B1220" letter-spacing="-1">iClinic</text>
    <text x="2" y="116" font-family="Inter, ui-sans-serif, system-ui, -apple-system, Segoe UI, Roboto, Arial, sans-serif" font-size="22" font-weight="600" fill="#64748B">Health Information System</text>
  </g>
</svg>
