<svg xmlns="http://www.w3.org/2000/svg" width="900" height="260" viewBox="0 0 900 260">
  <defs>
    <linearGradient id="g2" x1="0" x2="1" y1="0" y2="1">
      <stop offset="0" stop-color="#1D4ED8"/>
      <stop offset="1" stop-color="#06B6D4"/>
    </linearGradient>
  </defs>

  <rect width="900" height="260" fill="#ffffff"/>
  <g transform="translate(70,34)">
    <path d="M90 0c40 26 76 26 116 40v78c0 68-48 110-116 140C22 228 0 186 0 118V40C40 26 50 26 90 0z" fill="url(#g2)"/>
    <path d="M90 54c26 16 48 18 74 28v38c0 38-26 62-74 80-48-18-74-42-74-80V82c26-10 48-12 74-28z" fill="#0B1220" opacity="0.14"/>
    <g transform="translate(90,120)">
      <rect x="-12" y="-52" width="24" height="104" rx="12" fill="#ffffff"/>
      <rect x="-52" y="-12" width="104" height="24" rx="12" fill="#ffffff"/>
    </g>
  </g>

  <g transform="translate(260,72)">
    <text x="0" y="78" font-family="Inter,Segoe UI,Arial,sans-serif" font-size="78" font-weight="800" fill="#0F172A">iClinic</text>
    <text x="4" y="128" font-family="Inter,Segoe UI,Arial,sans-serif" font-size="22" font-weight="600" fill="#64748B">Secure Care  Trusted Records</text>
  </g>
</svg>
